<?xml version="1.0" encoding="UTF-8" standalone="no"?>
<!-- Created with Inkscape (http://www.inkscape.org/) -->

<svg
   xmlns:dc="http://purl.org/dc/elements/1.1/"
   xmlns:cc="http://creativecommons.org/ns#"
   xmlns:rdf="http://www.w3.org/1999/02/22-rdf-syntax-ns#"
   xmlns:svg="http://www.w3.org/2000/svg"
   xmlns="http://www.w3.org/2000/svg"
   xmlns:sodipodi="http://sodipodi.sourceforge.net/DTD/sodipodi-0.dtd"
   xmlns:inkscape="http://www.inkscape.org/namespaces/inkscape"
   width="200"
   height="200"
   viewBox="0 0 200 200"
   id="svg2"
   version="1.1"
   inkscape:version="0.91 r13725"
   sodipodi:docname="logo-knit.svg"
   inkscape:export-filename="/Users/ix/textiles-lab/assets/overthinking-a-lab-logo/logo-knit.png"
   inkscape:export-xdpi="180"
   inkscape:export-ydpi="180">
  <defs
     id="defs4" />
  <sodipodi:namedview
     id="base"
     pagecolor="#ffffff"
     bordercolor="#666666"
     borderopacity="1.0"
     inkscape:pageopacity="0.0"
     inkscape:pageshadow="2"
     inkscape:zoom="2.8"
     inkscape:cx="114.20867"
     inkscape:cy="86.692354"
     inkscape:document-units="px"
     inkscape:current-layer="layer1"
     showgrid="true"
     units="px"
     inkscape:object-paths="true"
     inkscape:object-nodes="true"
     inkscape:snap-smooth-nodes="true"
     borderlayer="true"
     inkscape:window-width="1680"
     inkscape:window-height="1001"
     inkscape:window-x="0"
     inkscape:window-y="1"
     inkscape:window-maximized="1">
    <inkscape:grid
       type="xygrid"
       id="grid4136"
       spacingx="10"
       spacingy="10" />
  </sodipodi:namedview>
  <metadata
     id="metadata7">
    <rdf:RDF>
      <cc:Work
         rdf:about="">
        <dc:format>image/svg+xml</dc:format>
        <dc:type
           rdf:resource="http://purl.org/dc/dcmitype/StillImage" />
        <dc:title></dc:title>
      </cc:Work>
    </rdf:RDF>
  </metadata>
  <g
     inkscape:label="Layer 1"
     inkscape:groupmode="layer"
     id="layer1"
     transform="translate(0,-852.36216)">
    <rect
       style="color:#000000;display:inline;overflow:visible;visibility:visible;opacity:1;fill:#cbcbcb;fill-opacity:1;fill-rule:evenodd;stroke:none;stroke-width:14;stroke-linecap:butt;stroke-linejoin:round;stroke-miterlimit:4;stroke-dasharray:none;stroke-dashoffset:0;stroke-opacity:1;marker:none;enable-background:accumulate"
       id="rect4259"
       width="200"
       height="200"
       x="0"
       y="852.36218" />
    <path
       inkscape:connector-curvature="0"
       id="path4317"
       d="m 166.15932,864.98636 c 0.89745,-3.21582 1.37725,-6.60586 1.37725,-10.10795 -0.0132,-8.11428 -2.65651,-16.00559 -7.51885,-22.50162 -4.86378,-6.4935 -7.5096,-14.38264 -7.52619,-22.49571 0,-4.74425 0.88051,-9.28284 2.48704,-13.46128"
       style="color:#000000;display:inline;overflow:visible;visibility:visible;opacity:1;fill:none;fill-opacity:1;fill-rule:evenodd;stroke:#ffffff;stroke-width:10;stroke-linecap:round;stroke-linejoin:round;stroke-miterlimit:4;stroke-dasharray:none;stroke-dashoffset:0;stroke-opacity:1;marker:none;enable-background:accumulate" />
    <path
       inkscape:connector-curvature="0"
       id="path4319"
       d="m 105.42432,797.44502 c 1.36543,3.8902 2.10797,8.07349 2.10797,12.43021 -0.0132,8.11425 -2.6565,16.00556 -7.5152,22.50451 -4.86009,6.49642 -7.505916,14.38556 -7.522507,22.49867 0,4.26019 0.710004,8.35455 2.018137,12.17121"
       style="color:#000000;display:inline;overflow:visible;visibility:visible;opacity:1;fill:none;fill-opacity:1;fill-rule:evenodd;stroke:#ffffff;stroke-width:10;stroke-linecap:round;stroke-linejoin:round;stroke-miterlimit:4;stroke-dasharray:none;stroke-dashoffset:0;stroke-opacity:1;marker:none;enable-background:accumulate" />
    <path
       inkscape:connector-curvature="0"
       id="path4321"
       d="m 45.323149,867.47756 c 1.408494,-3.94413 2.175555,-8.19304 2.175555,-12.6211 -0.01321,-8.11427 -2.656501,-16.00558 -7.500533,-22.49356 -4.845446,-6.48545 -7.491273,-14.37459 -7.507863,-22.48767 0,-5.11809 1.024748,-9.99683 2.88026,-14.44225"
       style="color:#000000;display:inline;overflow:visible;visibility:visible;opacity:1;fill:none;fill-opacity:1;fill-rule:evenodd;stroke:#ffffff;stroke-width:10;stroke-linecap:round;stroke-linejoin:round;stroke-miterlimit:4;stroke-dasharray:none;stroke-dashoffset:0;stroke-opacity:1;marker:none;enable-background:accumulate" />
    <path
       inkscape:connector-curvature="0"
       id="path4327"
       d="m 35.370568,795.43298 c 5.657143,-13.55333 19.036548,-23.07874 34.640731,-23.07874 16.365554,0 30.283921,10.47762 35.413021,25.09078"
       style="color:#000000;display:inline;overflow:visible;visibility:visible;opacity:1;fill:none;fill-opacity:1;fill-rule:evenodd;stroke:#ffffff;stroke-width:10;stroke-linecap:round;stroke-linejoin:round;stroke-miterlimit:4;stroke-dasharray:none;stroke-dashoffset:0;stroke-opacity:1;marker:none;enable-background:accumulate" />
    <path
       inkscape:connector-curvature="0"
       id="path4329"
       d="m 154.97857,796.4198 c 5.41056,-14.07243 19.05592,-24.05971 35.03395,-24.05971 20.72227,0 37.52099,16.79871 37.52099,37.52099 -0.0132,8.11424 -2.6565,16.00555 -7.53351,22.4906"
       style="color:#000000;display:inline;overflow:visible;visibility:visible;opacity:1;fill:none;fill-opacity:1;fill-rule:evenodd;stroke:#ffffff;stroke-width:10;stroke-linecap:round;stroke-linejoin:round;stroke-miterlimit:4;stroke-dasharray:none;stroke-dashoffset:0;stroke-opacity:1;marker:none;enable-background:accumulate" />
    <path
       inkscape:connector-curvature="0"
       id="path4299"
       d="m 166.15932,924.98636 c 0.89745,-3.21582 1.37725,-6.60586 1.37725,-10.10795 -0.0132,-8.11428 -2.65651,-16.00559 -7.51885,-22.50162 -4.86378,-6.4935 -7.5096,-14.38264 -7.52619,-22.49571 0,-4.74425 0.88051,-9.28284 2.48704,-13.46128"
       style="color:#000000;display:inline;overflow:visible;visibility:visible;opacity:1;fill:none;fill-opacity:1;fill-rule:evenodd;stroke:#ffffff;stroke-width:10;stroke-linecap:round;stroke-linejoin:round;stroke-miterlimit:4;stroke-dasharray:none;stroke-dashoffset:0;stroke-opacity:1;marker:none;enable-background:accumulate" />
    <path
       inkscape:connector-curvature="0"
       id="path4301"
       d="m 105.42432,857.44502 c 1.36543,3.8902 2.10797,8.07349 2.10797,12.43021 -0.0132,8.11425 -2.6565,16.00556 -7.5152,22.50451 -4.86009,6.49642 -7.505916,14.38556 -7.522507,22.49867 0,4.26019 0.710004,8.35455 2.018137,12.17121"
       style="color:#000000;display:inline;overflow:visible;visibility:visible;opacity:1;fill:none;fill-opacity:1;fill-rule:evenodd;stroke:#ffffff;stroke-width:10;stroke-linecap:round;stroke-linejoin:round;stroke-miterlimit:4;stroke-dasharray:none;stroke-dashoffset:0;stroke-opacity:1;marker:none;enable-background:accumulate" />
    <path
       inkscape:connector-curvature="0"
       id="path4303"
       d="m 45.323149,927.47756 c 1.408494,-3.94413 2.175555,-8.19304 2.175555,-12.6211 -0.01321,-8.11427 -2.656501,-16.00558 -7.500533,-22.49356 -4.845446,-6.48545 -7.491273,-14.37459 -7.507863,-22.48767 0,-5.11809 1.024748,-9.99683 2.88026,-14.44225"
       style="color:#000000;display:inline;overflow:visible;visibility:visible;opacity:1;fill:none;fill-opacity:1;fill-rule:evenodd;stroke:#ffffff;stroke-width:10;stroke-linecap:round;stroke-linejoin:round;stroke-miterlimit:4;stroke-dasharray:none;stroke-dashoffset:0;stroke-opacity:1;marker:none;enable-background:accumulate" />
    <path
       inkscape:connector-curvature="0"
       id="path4305"
       style="color:#000000;display:inline;overflow:visible;visibility:visible;opacity:1;fill:none;fill-opacity:1;fill-rule:evenodd;stroke:#cbcbcb;stroke-width:14;stroke-linecap:butt;stroke-linejoin:round;stroke-miterlimit:4;stroke-dasharray:none;stroke-dashoffset:0;stroke-opacity:1;marker:none;enable-background:accumulate"
       d="m 94.51516,867.0401 c 5.054835,14.74818 19.04078,25.34978 35.50285,25.34978 17.22018,0 31.73091,-11.6005 36.14375,-27.41304 M -20,832.36216 c -4.878425,6.48254 -7.524248,14.37168 -7.54084,22.48478 0,20.72225 16.798721,37.52104 37.520992,37.52104 16.294206,0 30.162521,-10.3865 35.345437,-24.89994 M 154.97857,856.4198 c 5.41056,-14.07243 19.05592,-24.05971 35.03395,-24.05971 20.72227,0 37.52099,16.79871 37.52099,37.52099 -0.0132,8.11424 -2.6565,16.00555 -7.53351,22.4906 M 35.370568,855.43298 c 5.657143,-13.55333 19.036548,-23.07874 34.640731,-23.07874 16.365554,0 30.283921,10.47762 35.413021,25.09078" />
    <path
       inkscape:connector-curvature="0"
       style="color:#000000;display:inline;overflow:visible;visibility:visible;opacity:1;fill:none;fill-opacity:1;fill-rule:evenodd;stroke:#ffffff;stroke-width:10;stroke-linecap:round;stroke-linejoin:round;stroke-miterlimit:4;stroke-dasharray:none;stroke-dashoffset:0;stroke-opacity:1;marker:none;enable-background:accumulate"
       d="m -20,832.36216 c -4.878425,6.48254 -7.524248,14.37168 -7.54084,22.48478 0,20.72225 16.798721,37.52104 37.520992,37.52104 16.294206,0 30.162521,-10.3865 35.345437,-24.89994"
       id="path4307" />
    <path
       inkscape:connector-curvature="0"
       id="path4309"
       d="m 35.370568,855.43298 c 5.657143,-13.55333 19.036548,-23.07874 34.640731,-23.07874 16.365554,0 30.283921,10.47762 35.413021,25.09078"
       style="color:#000000;display:inline;overflow:visible;visibility:visible;opacity:1;fill:none;fill-opacity:1;fill-rule:evenodd;stroke:#ffffff;stroke-width:10;stroke-linecap:round;stroke-linejoin:round;stroke-miterlimit:4;stroke-dasharray:none;stroke-dashoffset:0;stroke-opacity:1;marker:none;enable-background:accumulate" />
    <path
       inkscape:connector-curvature="0"
       id="path4311"
       d="m 154.97857,856.4198 c 5.41056,-14.07243 19.05592,-24.05971 35.03395,-24.05971 20.72227,0 37.52099,16.79871 37.52099,37.52099 -0.0132,8.11424 -2.6565,16.00555 -7.53351,22.4906"
       style="color:#000000;display:inline;overflow:visible;visibility:visible;opacity:1;fill:none;fill-opacity:1;fill-rule:evenodd;stroke:#ffffff;stroke-width:10;stroke-linecap:round;stroke-linejoin:round;stroke-miterlimit:4;stroke-dasharray:none;stroke-dashoffset:0;stroke-opacity:1;marker:none;enable-background:accumulate" />
    <path
       inkscape:connector-curvature="0"
       style="color:#000000;display:inline;overflow:visible;visibility:visible;opacity:1;fill:none;fill-opacity:1;fill-rule:evenodd;stroke:#ffffff;stroke-width:10;stroke-linecap:round;stroke-linejoin:round;stroke-miterlimit:4;stroke-dasharray:none;stroke-dashoffset:0;stroke-opacity:1;marker:none;enable-background:accumulate"
       d="m 94.51516,867.0401 c 5.054835,14.74818 19.04078,25.34978 35.50285,25.34978 17.22018,0 31.73091,-11.6005 36.14375,-27.41304"
       id="path4313" />
    <path
       inkscape:connector-curvature="0"
       style="color:#000000;display:inline;overflow:visible;visibility:visible;opacity:1;fill:none;fill-opacity:1;fill-rule:evenodd;stroke:#000000;stroke-width:10;stroke-linecap:round;stroke-linejoin:round;stroke-miterlimit:4;stroke-dasharray:none;stroke-dashoffset:0;stroke-opacity:1;marker:none;enable-background:accumulate"
       d="m 166.15932,984.98636 c 0.89745,-3.21582 1.37725,-6.60586 1.37725,-10.10795 -0.0132,-8.11428 -2.65651,-16.00559 -7.51885,-22.50162 -4.86378,-6.4935 -7.5096,-14.38264 -7.52619,-22.49571 0,-4.74425 0.88051,-9.28284 2.48704,-13.46128"
       id="path4205" />
    <path
       inkscape:connector-curvature="0"
       style="color:#000000;display:inline;overflow:visible;visibility:visible;opacity:1;fill:none;fill-opacity:1;fill-rule:evenodd;stroke:#000000;stroke-width:10;stroke-linecap:round;stroke-linejoin:round;stroke-miterlimit:4;stroke-dasharray:none;stroke-dashoffset:0;stroke-opacity:1;marker:none;enable-background:accumulate"
       d="m 105.42432,917.44502 c 1.36543,3.8902 2.10797,8.07349 2.10797,12.43021 -0.0132,8.11425 -2.6565,16.00556 -7.5152,22.50451 -4.86009,6.49642 -7.505916,14.38556 -7.522507,22.49867 0,4.26019 0.710004,8.35455 2.018137,12.17121"
       id="path4209" />
    <path
       inkscape:connector-curvature="0"
       style="color:#000000;display:inline;overflow:visible;visibility:visible;opacity:1;fill:none;fill-opacity:1;fill-rule:evenodd;stroke:#000000;stroke-width:10;stroke-linecap:round;stroke-linejoin:round;stroke-miterlimit:4;stroke-dasharray:none;stroke-dashoffset:0;stroke-opacity:1;marker:none;enable-background:accumulate"
       d="m 45.323149,987.47756 c 1.408494,-3.94413 2.175555,-8.19304 2.175555,-12.6211 -0.01321,-8.11427 -2.656501,-16.00558 -7.500533,-22.49356 -4.845446,-6.48545 -7.491273,-14.37459 -7.507863,-22.48767 0,-5.11809 1.024748,-9.99683 2.88026,-14.44225"
       id="path4213" />
    <path
       inkscape:connector-curvature="0"
       d="m 94.51516,927.0401 c 5.054835,14.74818 19.04078,25.34978 35.50285,25.34978 17.22018,0 31.73091,-11.6005 36.14375,-27.41304 M -20,892.36216 c -4.878425,6.48254 -7.524248,14.37168 -7.54084,22.48478 0,20.72225 16.798721,37.52104 37.520992,37.52104 16.294206,0 30.162521,-10.3865 35.345437,-24.89994 M 154.97857,916.4198 c 5.41056,-14.07243 19.05592,-24.05971 35.03395,-24.05971 20.72227,0 37.52099,16.79871 37.52099,37.52099 -0.0132,8.11424 -2.6565,16.00555 -7.53351,22.4906 M 35.370568,915.43298 c 5.657143,-13.55333 19.036548,-23.07874 34.640731,-23.07874 16.365554,0 30.283921,10.47762 35.413021,25.09078"
       style="color:#000000;display:inline;overflow:visible;visibility:visible;opacity:1;fill:none;fill-opacity:1;fill-rule:evenodd;stroke:#cbcbcb;stroke-width:14;stroke-linecap:butt;stroke-linejoin:round;stroke-miterlimit:4;stroke-dasharray:none;stroke-dashoffset:0;stroke-opacity:1;marker:none;enable-background:accumulate"
       id="path4254" />
    <path
       id="path4219"
       d="m -20,892.36216 c -4.878425,6.48254 -7.524248,14.37168 -7.54084,22.48478 0,20.72225 16.798721,37.52104 37.520992,37.52104 16.294206,0 30.162521,-10.3865 35.345437,-24.89994"
       style="color:#000000;display:inline;overflow:visible;visibility:visible;opacity:1;fill:none;fill-opacity:1;fill-rule:evenodd;stroke:#ffffff;stroke-width:10;stroke-linecap:round;stroke-linejoin:round;stroke-miterlimit:4;stroke-dasharray:none;stroke-dashoffset:0;stroke-opacity:1;marker:none;enable-background:accumulate"
       inkscape:connector-curvature="0" />
    <path
       inkscape:connector-curvature="0"
       style="color:#000000;display:inline;overflow:visible;visibility:visible;opacity:1;fill:none;fill-opacity:1;fill-rule:evenodd;stroke:#000000;stroke-width:10;stroke-linecap:round;stroke-linejoin:round;stroke-miterlimit:4;stroke-dasharray:none;stroke-dashoffset:0;stroke-opacity:1;marker:none;enable-background:accumulate"
       d="m 35.370568,915.43298 c 5.657143,-13.55333 19.036548,-23.07874 34.640731,-23.07874 16.365554,0 30.283921,10.47762 35.413021,25.09078"
       id="path4211" />
    <path
       inkscape:connector-curvature="0"
       style="color:#000000;display:inline;overflow:visible;visibility:visible;opacity:1;fill:none;fill-opacity:1;fill-rule:evenodd;stroke:#000000;stroke-width:10;stroke-linecap:round;stroke-linejoin:round;stroke-miterlimit:4;stroke-dasharray:none;stroke-dashoffset:0;stroke-opacity:1;marker:none;enable-background:accumulate"
       d="m 154.97857,916.4198 c 5.41056,-14.07243 19.05592,-24.05971 35.03395,-24.05971 20.72227,0 37.52099,16.79871 37.52099,37.52099 -0.0132,8.11424 -2.6565,16.00555 -7.53351,22.4906"
       id="path4155" />
    <path
       id="path4221"
       d="m 94.51516,927.0401 c 5.054835,14.74818 19.04078,25.34978 35.50285,25.34978 17.22018,0 31.73091,-11.6005 36.14375,-27.41304"
       style="color:#000000;display:inline;overflow:visible;visibility:visible;opacity:1;fill:none;fill-opacity:1;fill-rule:evenodd;stroke:#ffffff;stroke-width:10;stroke-linecap:round;stroke-linejoin:round;stroke-miterlimit:4;stroke-dasharray:none;stroke-dashoffset:0;stroke-opacity:1;marker:none;enable-background:accumulate"
       inkscape:connector-curvature="0" />
    <path
       inkscape:connector-curvature="0"
       id="path4281"
       d="m 166.15932,1044.9864 c 0.89745,-3.2159 1.37725,-6.6059 1.37725,-10.108 -0.0132,-8.1143 -2.65651,-16.0056 -7.51885,-22.5016 -4.86378,-6.4935 -7.5096,-14.38265 -7.52619,-22.49572 0,-4.74425 0.88051,-9.28284 2.48704,-13.46128"
       style="color:#000000;display:inline;overflow:visible;visibility:visible;opacity:1;fill:none;fill-opacity:1;fill-rule:evenodd;stroke:#ffffff;stroke-width:10;stroke-linecap:round;stroke-linejoin:round;stroke-miterlimit:4;stroke-dasharray:none;stroke-dashoffset:0;stroke-opacity:1;marker:none;enable-background:accumulate" />
    <path
       inkscape:connector-curvature="0"
       id="path4283"
       d="m 105.42432,977.44502 c 1.36543,3.8902 2.10797,8.07349 2.10797,12.43021 -0.0132,8.11425 -2.6565,16.00557 -7.5152,22.50447 -4.86009,6.4965 -7.505916,14.3856 -7.522507,22.4987 0,4.2602 0.710004,8.3546 2.018137,12.1712"
       style="color:#000000;display:inline;overflow:visible;visibility:visible;opacity:1;fill:none;fill-opacity:1;fill-rule:evenodd;stroke:#ffffff;stroke-width:10;stroke-linecap:round;stroke-linejoin:round;stroke-miterlimit:4;stroke-dasharray:none;stroke-dashoffset:0;stroke-opacity:1;marker:none;enable-background:accumulate" />
    <path
       inkscape:connector-curvature="0"
       id="path4285"
       d="m 45.323149,1047.4776 c 1.408494,-3.9442 2.175555,-8.1931 2.175555,-12.6211 -0.01321,-8.1143 -2.656501,-16.0056 -7.500533,-22.4936 -4.845446,-6.4854 -7.491273,-14.37459 -7.507863,-22.48767 0,-5.11809 1.024748,-9.99683 2.88026,-14.44225"
       style="color:#000000;display:inline;overflow:visible;visibility:visible;opacity:1;fill:none;fill-opacity:1;fill-rule:evenodd;stroke:#ffffff;stroke-width:10;stroke-linecap:round;stroke-linejoin:round;stroke-miterlimit:4;stroke-dasharray:none;stroke-dashoffset:0;stroke-opacity:1;marker:none;enable-background:accumulate" />
    <path
       inkscape:connector-curvature="0"
       id="path4287"
       style="color:#000000;display:inline;overflow:visible;visibility:visible;opacity:1;fill:none;fill-opacity:1;fill-rule:evenodd;stroke:#cbcbcb;stroke-width:14;stroke-linecap:butt;stroke-linejoin:round;stroke-miterlimit:4;stroke-dasharray:none;stroke-dashoffset:0;stroke-opacity:1;marker:none;enable-background:accumulate"
       d="m 94.51516,987.0401 c 5.054835,14.7482 19.04078,25.3498 35.50285,25.3498 17.22018,0 31.73091,-11.6005 36.14375,-27.41306 M -20,952.36216 c -4.878425,6.48254 -7.524248,14.37168 -7.54084,22.48478 0,20.72225 16.798721,37.52106 37.520992,37.52106 16.294206,0 30.162521,-10.3865 35.345437,-24.89996 M 154.97857,976.4198 c 5.41056,-14.07243 19.05592,-24.05971 35.03395,-24.05971 20.72227,0 37.52099,16.79871 37.52099,37.52099 -0.0132,8.11424 -2.6565,16.00552 -7.53351,22.49062 M 35.370568,975.43298 c 5.657143,-13.55333 19.036548,-23.07874 34.640731,-23.07874 16.365554,0 30.283921,10.47762 35.413021,25.09078" />
    <path
       inkscape:connector-curvature="0"
       style="color:#000000;display:inline;overflow:visible;visibility:visible;opacity:1;fill:none;fill-opacity:1;fill-rule:evenodd;stroke:#000000;stroke-width:10;stroke-linecap:round;stroke-linejoin:round;stroke-miterlimit:4;stroke-dasharray:none;stroke-dashoffset:0;stroke-opacity:1;marker:none;enable-background:accumulate"
       d="m -20,952.36216 c -4.878425,6.48254 -7.524248,14.37168 -7.54084,22.48478 0,20.72225 16.798721,37.52106 37.520992,37.52106 16.294206,0 30.162521,-10.3865 35.345437,-24.89996"
       id="path4289" />
    <path
       inkscape:connector-curvature="0"
       id="path4291"
       d="m 35.370568,975.43298 c 5.657143,-13.55333 19.036548,-23.07874 34.640731,-23.07874 16.365554,0 30.283921,10.47762 35.413021,25.09078"
       style="color:#000000;display:inline;overflow:visible;visibility:visible;opacity:1;fill:none;fill-opacity:1;fill-rule:evenodd;stroke:#ffffff;stroke-width:10;stroke-linecap:round;stroke-linejoin:round;stroke-miterlimit:4;stroke-dasharray:none;stroke-dashoffset:0;stroke-opacity:1;marker:none;enable-background:accumulate" />
    <path
       inkscape:connector-curvature="0"
       id="path4293"
       d="m 154.97857,976.4198 c 5.41056,-14.07243 19.05592,-24.05971 35.03395,-24.05971 20.72227,0 37.52099,16.79871 37.52099,37.52099 -0.0132,8.11424 -2.6565,16.00552 -7.53351,22.49062"
       style="color:#000000;display:inline;overflow:visible;visibility:visible;opacity:1;fill:none;fill-opacity:1;fill-rule:evenodd;stroke:#ffffff;stroke-width:10;stroke-linecap:round;stroke-linejoin:round;stroke-miterlimit:4;stroke-dasharray:none;stroke-dashoffset:0;stroke-opacity:1;marker:none;enable-background:accumulate" />
    <path
       inkscape:connector-curvature="0"
       style="color:#000000;display:inline;overflow:visible;visibility:visible;opacity:1;fill:none;fill-opacity:1;fill-rule:evenodd;stroke:#000000;stroke-width:10;stroke-linecap:round;stroke-linejoin:round;stroke-miterlimit:4;stroke-dasharray:none;stroke-dashoffset:0;stroke-opacity:1;marker:none;enable-background:accumulate"
       d="m 94.51516,987.0401 c 5.054835,14.7482 19.04078,25.3498 35.50285,25.3498 17.22018,0 31.73091,-11.6005 36.14375,-27.41306"
       id="path4295" />
    <path
       inkscape:connector-curvature="0"
       id="path4263"
       d="m 166.15932,1104.9864 c 0.89745,-3.2159 1.37725,-6.6059 1.37725,-10.108 -0.0132,-8.1143 -2.65651,-16.0056 -7.51885,-22.5016 -4.86378,-6.4935 -7.5096,-14.3826 -7.52619,-22.4957 0,-4.7443 0.88051,-9.2829 2.48704,-13.4613"
       style="color:#000000;display:inline;overflow:visible;visibility:visible;opacity:1;fill:none;fill-opacity:1;fill-rule:evenodd;stroke:#ffffff;stroke-width:10;stroke-linecap:round;stroke-linejoin:round;stroke-miterlimit:4;stroke-dasharray:none;stroke-dashoffset:0;stroke-opacity:1;marker:none;enable-background:accumulate" />
    <path
       inkscape:connector-curvature="0"
       id="path4265"
       d="m 105.42432,1037.445 c 1.36543,3.8902 2.10797,8.0735 2.10797,12.4302 -0.0132,8.1143 -2.6565,16.0056 -7.5152,22.5045 -4.86009,6.4965 -7.505916,14.3856 -7.522507,22.4987 0,4.2602 0.710004,8.3546 2.018137,12.1712"
       style="color:#000000;display:inline;overflow:visible;visibility:visible;opacity:1;fill:none;fill-opacity:1;fill-rule:evenodd;stroke:#ffffff;stroke-width:10;stroke-linecap:round;stroke-linejoin:round;stroke-miterlimit:4;stroke-dasharray:none;stroke-dashoffset:0;stroke-opacity:1;marker:none;enable-background:accumulate" />
    <path
       inkscape:connector-curvature="0"
       id="path4267"
       d="m 45.323149,1107.4776 c 1.408494,-3.9442 2.175555,-8.1931 2.175555,-12.6211 -0.01321,-8.1143 -2.656501,-16.0056 -7.500533,-22.4936 -4.845446,-6.4854 -7.491273,-14.3746 -7.507863,-22.4877 0,-5.1181 1.024748,-9.9968 2.88026,-14.4422"
       style="color:#000000;display:inline;overflow:visible;visibility:visible;opacity:1;fill:none;fill-opacity:1;fill-rule:evenodd;stroke:#ffffff;stroke-width:10;stroke-linecap:round;stroke-linejoin:round;stroke-miterlimit:4;stroke-dasharray:none;stroke-dashoffset:0;stroke-opacity:1;marker:none;enable-background:accumulate" />
    <path
       inkscape:connector-curvature="0"
       id="path4269"
       style="color:#000000;display:inline;overflow:visible;visibility:visible;opacity:1;fill:none;fill-opacity:1;fill-rule:evenodd;stroke:#cbcbcb;stroke-width:14;stroke-linecap:butt;stroke-linejoin:round;stroke-miterlimit:4;stroke-dasharray:none;stroke-dashoffset:0;stroke-opacity:1;marker:none;enable-background:accumulate"
       d="m 94.51516,1047.0401 c 5.054835,14.7482 19.04078,25.3498 35.50285,25.3498 17.22018,0 31.73091,-11.6005 36.14375,-27.4131 M -20,1012.3622 c -4.878425,6.4825 -7.524248,14.3716 -7.54084,22.4847 0,20.7223 16.798721,37.5211 37.520992,37.5211 16.294206,0 30.162521,-10.3865 35.345437,-24.9 m 109.652981,-11.0482 c 5.41056,-14.0724 19.05592,-24.0597 35.03395,-24.0597 20.72227,0 37.52099,16.7987 37.52099,37.521 -0.0132,8.1142 -2.6565,16.0055 -7.53351,22.4906 M 35.370568,1035.433 c 5.657143,-13.5533 19.036548,-23.0788 34.640731,-23.0788 16.365554,0 30.283921,10.4777 35.413021,25.0908" />
    <path
       inkscape:connector-curvature="0"
       style="color:#000000;display:inline;overflow:visible;visibility:visible;opacity:1;fill:none;fill-opacity:1;fill-rule:evenodd;stroke:#ffffff;stroke-width:10;stroke-linecap:round;stroke-linejoin:round;stroke-miterlimit:4;stroke-dasharray:none;stroke-dashoffset:0;stroke-opacity:1;marker:none;enable-background:accumulate"
       d="m -20,1012.3622 c -4.878425,6.4825 -7.524248,14.3716 -7.54084,22.4847 0,20.7223 16.798721,37.5211 37.520992,37.5211 16.294206,0 30.162521,-10.3865 35.345437,-24.9"
       id="path4271" />
    <path
       inkscape:connector-curvature="0"
       id="path4273"
       d="m 35.370568,1035.433 c 5.657143,-13.5533 19.036548,-23.0788 34.640731,-23.0788 16.365554,0 30.283921,10.4777 35.413021,25.0908"
       style="color:#000000;display:inline;overflow:visible;visibility:visible;opacity:1;fill:none;fill-opacity:1;fill-rule:evenodd;stroke:#ffffff;stroke-width:10;stroke-linecap:round;stroke-linejoin:round;stroke-miterlimit:4;stroke-dasharray:none;stroke-dashoffset:0;stroke-opacity:1;marker:none;enable-background:accumulate" />
    <path
       inkscape:connector-curvature="0"
       id="path4275"
       d="m 154.97857,1036.4198 c 5.41056,-14.0724 19.05592,-24.0597 35.03395,-24.0597 20.72227,0 37.52099,16.7987 37.52099,37.521 -0.0132,8.1142 -2.6565,16.0055 -7.53351,22.4906"
       style="color:#000000;display:inline;overflow:visible;visibility:visible;opacity:1;fill:none;fill-opacity:1;fill-rule:evenodd;stroke:#ffffff;stroke-width:10;stroke-linecap:round;stroke-linejoin:round;stroke-miterlimit:4;stroke-dasharray:none;stroke-dashoffset:0;stroke-opacity:1;marker:none;enable-background:accumulate" />
    <path
       inkscape:connector-curvature="0"
       style="color:#000000;display:inline;overflow:visible;visibility:visible;opacity:1;fill:none;fill-opacity:1;fill-rule:evenodd;stroke:#ffffff;stroke-width:10;stroke-linecap:round;stroke-linejoin:round;stroke-miterlimit:4;stroke-dasharray:none;stroke-dashoffset:0;stroke-opacity:1;marker:none;enable-background:accumulate"
       d="m 94.51516,1047.0401 c 5.054835,14.7482 19.04078,25.3498 35.50285,25.3498 17.22018,0 31.73091,-11.6005 36.14375,-27.4131"
       id="path4277" />
  </g>
</svg>
